<svg xmlns="http://www.w3.org/2000/svg" width="34" height="27.727" viewBox="0 0 34 27.727">
  <path id="bat" d="M33.822,42.162A6.144,6.144,0,0,1,31.8,37.436a6.013,6.013,0,0,1,2.018-4.049.53.53,0,0,0-.366-.923,8.641,8.641,0,0,0-8.927,6.073.5.5,0,0,0,.052.4,4.514,4.514,0,0,1-.193,5.025,2.028,2.028,0,0,1-3.608-.891l-.312-2.649a.574.574,0,0,0-1.1-.1,2.529,2.529,0,0,1-4.729,0,.574.574,0,0,0-1.1.1L13.22,43.07a2.025,2.025,0,0,1-3.679.791,4.517,4.517,0,0,1-.122-4.924.5.5,0,0,0,.052-.4A8.643,8.643,0,0,0,.544,32.464a.53.53,0,0,0-.366.923A6.013,6.013,0,0,1,2.2,37.436,6.144,6.144,0,0,1,.177,42.162a.517.517,0,0,0,.106.85,8.305,8.305,0,0,1,4.4,8.737.546.546,0,0,0,.558.62,11.9,11.9,0,0,1,11.228,7.465.579.579,0,0,0,1.064,0A11.9,11.9,0,0,1,28.759,52.37a.546.546,0,0,0,.558-.62,8.306,8.306,0,0,1,4.4-8.737.517.517,0,0,0,.106-.85ZM16.078,45.823a.568.568,0,0,1-1.133,0v-.4a.568.568,0,0,1,1.133,0Zm2.975,0a.568.568,0,0,1-1.133,0v-.4a.568.568,0,0,1,1.133,0Z" transform="translate(0.001 -32.457)" fill="#2f1a4f"/>
</svg>
