<svg xmlns="http://www.w3.org/2000/svg" width="26" height="26" viewBox="0 0 26 26">
  <path id="Path_18" data-name="Path 18" d="M25.864,6.417H21.589V5.048a5.134,5.134,0,0,0-10.267,0V6.417H7.638a.558.558,0,0,0-.563.553L3.914,25.447A.558.558,0,0,0,4.477,26H29.351a.558.558,0,0,0,.563-.553L26.426,6.97A.558.558,0,0,0,25.864,6.417ZM12.446,5.048a4.009,4.009,0,0,1,8.017,0V6.417H12.446ZM28.789,24.893H5.039L8.2,7.523h3.121V9.959a.99.99,0,0,0-.45.828,1.013,1.013,0,0,0,2.025,0,.99.99,0,0,0-.45-.828V7.523h8.018V9.959a.99.99,0,0,0-.45.828,1.013,1.013,0,0,0,2.025,0,.99.99,0,0,0-.45-.828V7.523H25.3Z" transform="translate(-3.914)" fill="#fffcfc"/>
</svg>
