<svg xmlns="http://www.w3.org/2000/svg" width="72.695" height="35.534" viewBox="0 0 72.695 35.534">
  <g id="truck" transform="translate(-152.638 -142.533)">
    <g id="Group_89" data-name="Group 89" transform="translate(98 -169)">
      <g id="Group_88" data-name="Group 88" transform="translate(68.267 337.067)">
        <path id="Path_78" data-name="Path 78" d="M73.267,337.067a5,5,0,1,0,5,5A5.005,5.005,0,0,0,73.267,337.067Zm0,8.333a3.333,3.333,0,1,1,3.333-3.333A3.337,3.337,0,0,1,73.267,345.4Z" transform="translate(-68.267 -337.067)" fill="#5d5151"/>
      </g>
    </g>
    <g id="Group_91" data-name="Group 91" transform="translate(-148 -169)">
      <g id="Group_90" data-name="Group 90" transform="translate(358.4 337.067)">
        <path id="Path_79" data-name="Path 79" d="M363.4,337.067a5,5,0,1,0,5,5A5.005,5.005,0,0,0,363.4,337.067Zm0,8.333a3.333,3.333,0,1,1,3.333-3.333A3.337,3.337,0,0,1,363.4,345.4Z" transform="translate(-358.4 -337.067)" fill="#5d5151"/>
      </g>
    </g>
    <g id="Group_93" data-name="Group 93" transform="translate(-119 -13)">
      <g id="Group_92" data-name="Group 92">
        <path id="Path_80" data-name="Path 80" d="M344.123,177.11l-8.182-10.37a.975.975,0,0,0-.765-.34h-10a.838.838,0,0,0-.909.741v18.518a.837.837,0,0,0,.909.741h3.636v-1.482h-2.727V167.881h8.595l7.769,9.847v7.19H337.9V186.4h5.455a.837.837,0,0,0,.909-.741v-8.148A.644.644,0,0,0,344.123,177.11Z" fill="#5d5151"/>
      </g>
    </g>
    <g id="Group_95" data-name="Group 95" transform="translate(-149 -44)">
      <g id="Group_94" data-name="Group 94" transform="translate(358.401 200.533)">
        <path id="Path_81" data-name="Path 81" d="M360.327,208.264v-6.013h7.7v-1.718h-8.667a.915.915,0,0,0-.963.859v7.731a.915.915,0,0,0,.963.859h14.445v-1.718H360.327Z" transform="translate(-358.401 -200.533)" fill="#5d5151"/>
      </g>
    </g>
    <g id="Group_97" data-name="Group 97" transform="translate(152.638 38.434)">
      <g id="Group_96" data-name="Group 96" transform="translate(0 106.667)">
        <path id="Path_82" data-name="Path 82" d="M51.053,106.667H1.309c-.723,0-1.309.368-1.309.823v26.321c0,.455.586.823,1.309.823H11.781v-1.645H2.618V108.312H49.744v24.676H24.872v1.645H51.053c.724,0,1.309-.368,1.309-.823V107.49C52.362,107.035,51.777,106.667,51.053,106.667Z" transform="translate(0 -106.667)" fill="#5d5151"/>
      </g>
    </g>
    <g id="Group_99" data-name="Group 99" transform="translate(171.286 -177)">
      <g id="Group_98" data-name="Group 98" transform="translate(8.533 345.6)">
        <rect id="Rectangle_99" data-name="Rectangle 99" width="22.848" height="1" transform="translate(0)" fill="#5d5151"/>
      </g>
    </g>
    <g id="Group_101" data-name="Group 101" transform="translate(-21 -175.733)">
      <g id="Group_100" data-name="Group 100" transform="translate(179.2 345.6)">
        <rect id="Rectangle_100" data-name="Rectangle 100" width="5" height="0.733" transform="translate(0)" fill="#5d5151"/>
      </g>
    </g>
    <g id="Group_103" data-name="Group 103" transform="translate(-248 -177)">
      <g id="Group_102" data-name="Group 102" transform="translate(469.333 345.6)">
        <rect id="Rectangle_101" data-name="Rectangle 101" width="4" height="1" fill="#5d5151"/>
      </g>
    </g>
    <g id="Group_105" data-name="Group 105" transform="translate(129 2)">
      <g id="Group_104" data-name="Group 104" transform="translate(34.133 140.8)">
        <rect id="Rectangle_102" data-name="Rectangle 102" width="30.11" height="1" transform="translate(0)" fill="#5d5151"/>
      </g>
    </g>
    <g id="Group_107" data-name="Group 107" transform="translate(59 -207.666)">
      <g id="Group_106" data-name="Group 106" transform="translate(110.933 379.733)">
        <rect id="Rectangle_103" data-name="Rectangle 103" width="2" height="2" fill="#5d5151"/>
      </g>
    </g>
    <g id="Group_109" data-name="Group 109" transform="translate(-187 -208)">
      <g id="Group_108" data-name="Group 108" transform="translate(401.067 379.733)">
        <rect id="Rectangle_104" data-name="Rectangle 104" width="2" height="2" transform="translate(0)" fill="#5d5151"/>
      </g>
    </g>
    <g id="Group_111" data-name="Group 111" transform="translate(130.867 76)">
      <g id="Group_110" data-name="Group 110" transform="translate(34.133 72.533)">
        <rect id="Rectangle_105" data-name="Rectangle 105" width="36.133" height="1" fill="#5d5151"/>
      </g>
    </g>
    <g id="Group_113" data-name="Group 113" transform="translate(153 70)">
      <g id="Group_112" data-name="Group 112" transform="translate(0 72.533)">
        <rect id="Rectangle_106" data-name="Rectangle 106" width="4" height="1" fill="#5d5151"/>
      </g>
    </g>
  </g>
</svg>
